# xmcd CD database file generated by LOLA_Freedb v0.9beta0
# 
# Track frame offsets:
#      150
#      13431
#      26870
#      41738
#      54691
#      67680
#      81818
#      93761
#      106307
#      120002
#      138395
#      149939
#      162898
# 
# Disc length: 2424 seconds
# 
# Revision: 0 
# Processed by: cddbd v1.5.2PL0 Copyright (c) Steve Scherf et al.
# Submitted via: LOLA_Freedb v0.9beta0
# 
DISCID=af09760d
DTITLE=Cash Carter Tribute - Cash Carter Tribute we walk the line
DYEAR=2009
DGENRE=Country
TTITLE0=Cash Carter Tribute - Jackson
TTITLE1=Cash Carter Tribute - Man In Black
TTITLE2=Cash Carter Tribute - Help Me Make It Through The Night
TTITLE3=Cash Carter Tribute - Folsom Prison Blues
TTITLE4=Cash Carter Tribute - Wildwood Flower
TTITLE5=Cash Carter Tribute - Big River
TTITLE6=Cash Carter Tribute - I Walk The Line
TTITLE7=Cash Carter Tribute - Long Legged Guitar Picking Man
TTITLE8=Cash Carter Tribute - The Pine Tree
TTITLE9=Cash Carter Tribute - Cause I Love You
TTITLE10=Cash Carter Tribute - Oh What A Good Thing We Had
TTITLE11=Cash Carter Tribute - If I where A Carpenter
TTITLE12=Cash Carter Tribute - Will The Circle Be Unbroken
EXTD=
EXTT0=
EXTT1=
EXTT2=
EXTT3=
EXTT4=
EXTT5=
EXTT6=
EXTT7=
EXTT8=
EXTT9=
EXTT10=
EXTT11=
EXTT12=
PLAYORDER=
